<svg id="Capa_1" enable-background="new 0 0 512 512" height="512" viewBox="0 0 512 512" width="512" xmlns="http://www.w3.org/2000/svg"><g><path d="m275.489 275.489c5.206-5.206 8.073-12.127 8.073-19.489s-2.867-14.283-8.073-19.489-12.127-8.073-19.489-8.073-14.283 2.867-19.489 8.073-8.073 12.127-8.073 19.489 2.867 14.283 8.073 19.489 12.127 8.073 19.489 8.073 14.283-2.867 19.489-8.073z"/><path d="m256 0c-141.385 0-256 114.615-256 256s114.615 256 256 256 256-114.615 256-256-114.615-256-256-256zm0 423.164c-92.174 0-167.164-74.989-167.164-167.164s74.99-167.164 167.164-167.164 167.164 74.99 167.164 167.164-74.99 167.164-167.164 167.164z"/><path d="m198.438 256c0-3.601.341-7.147.984-10.613l-72.757-35.06c-5.063 14.294-7.828 29.665-7.828 45.673s2.766 31.378 7.828 45.673l72.757-35.06c-.643-3.466-.984-7.012-.984-10.613z"/><path d="m293.631 212.461c2.113 1.832 4.076 3.795 5.908 5.908l72.733-35.048c-11.048-17.611-25.981-32.544-43.592-43.592z"/><path d="m313.562 256c0 3.601-.341 7.147-.984 10.613l72.757 35.06c5.063-14.294 7.828-29.665 7.828-45.673s-2.766-31.378-7.828-45.673l-72.757 35.06c.643 3.466.984 7.012.984 10.613z"/><path d="m245.387 199.422c7.008-1.299 14.218-1.299 21.225 0l35.06-72.757c-14.294-5.063-29.665-7.828-45.673-7.828s-31.378 2.766-45.673 7.828z"/><path d="m299.539 293.631c-1.832 2.113-3.795 4.076-5.908 5.908l35.049 72.733c17.611-11.048 32.544-25.981 43.592-43.592z"/><path d="m266.613 312.578c-7.008 1.299-14.218 1.299-21.225 0l-35.06 72.757c14.294 5.063 29.665 7.828 45.673 7.828s31.378-2.766 45.673-7.828z"/><path d="m212.461 218.369c1.832-2.113 3.795-4.076 5.908-5.908l-35.049-72.733c-17.611 11.048-32.544 25.981-43.592 43.592z"/><path d="m218.369 299.539c-2.113-1.832-4.076-3.795-5.908-5.908l-72.733 35.048c11.048 17.611 25.981 32.544 43.592 43.592z"/></g></svg>